<svg width="154" height="51" viewBox="0 0 154 51" fill="none" xmlns="http://www.w3.org/2000/svg">
<g clip-path="url(#clip0_3394_87)">
<path d="M6.80286 0H147.183C150.939 0 153.986 3.08379 153.986 6.88713V44.0982C153.986 47.9015 150.939 50.9853 147.183 50.9853H6.80286C3.04606 50.9853 0 47.9015 0 44.0982V6.88713C0 3.08379 3.04606 0 6.80286 0Z" fill="#231F20"/>
<path d="M26.6022 8.72278H14.0554C12.5469 8.72278 11.3284 9.95629 11.3284 11.4835V39.6194C11.3284 41.1466 12.5469 42.3801 14.0554 42.3801H26.6022C28.1108 42.3801 29.3292 41.1466 29.3292 39.6194V11.4835C29.3292 9.95629 28.1108 8.72278 26.6022 8.72278ZM20.3216 40.3536C19.3207 40.3536 18.5084 39.5313 18.5084 38.5181C18.5084 37.5048 19.3207 36.6825 20.3216 36.6825C21.3224 36.6825 22.1347 37.5048 22.1347 38.5181C22.1347 39.5313 21.3224 40.3536 20.3216 40.3536ZM27.1824 35.7867H13.4752V15.0372H27.1824V35.7867Z" fill="white"/>
<path d="M39.5987 13.7301L38.83 16.065H37.8436L40.3385 8.63452H41.4844L43.9938 16.065H42.9784L42.1951 13.7301H39.5987ZM42.0066 12.9812L41.2813 10.8372C41.1218 10.3526 41.0202 9.91209 40.9042 9.48623H40.8752C40.7736 9.91209 40.6576 10.382 40.5126 10.8372L39.7873 12.9812H41.9921H42.0066Z" fill="white"/>
<path d="M44.9801 10.7345L46.01 13.7302C46.184 14.2295 46.3291 14.67 46.4306 15.1105H46.4596C46.5757 14.67 46.7352 14.2295 46.9093 13.7302L47.9391 10.7345H48.94L46.8658 16.065H45.952L43.9503 10.7345H44.9801Z" fill="white"/>
<path d="M53.3495 14.8022C53.3495 15.2721 53.3785 15.7126 53.4221 16.0797H52.5663L52.4792 15.4042H52.4502C52.1746 15.8301 51.5944 16.1972 50.8402 16.1972C49.7668 16.1972 49.2301 15.4336 49.2301 14.67C49.2301 13.3778 50.3615 12.6729 52.4067 12.6876V12.5701C52.4067 12.1296 52.2907 11.3219 51.2028 11.3366C50.6951 11.3366 50.1874 11.4834 49.8248 11.7331L49.6072 11.0869C50.0424 10.8079 50.6806 10.6317 51.3478 10.6317C52.9724 10.6317 53.364 11.7478 53.364 12.8197V14.8169L53.3495 14.8022ZM52.4212 13.3484C51.3768 13.3337 50.1874 13.5099 50.1874 14.5525C50.1874 15.1987 50.6081 15.4777 51.0868 15.4777C51.783 15.4777 52.2326 15.0371 52.3777 14.5819C52.4067 14.4791 52.4212 14.3763 52.4212 14.2735V13.3484Z" fill="white"/>
<path d="M55.2932 9.75064C54.9306 9.75064 54.6985 9.47163 54.6985 9.1192C54.6985 8.76677 54.9451 8.50244 55.3222 8.50244C55.6993 8.50244 55.9314 8.78145 55.9314 9.1192C55.9314 9.45695 55.6848 9.75064 55.3077 9.75064H55.2932ZM54.829 16.0798V10.7492H55.7864V16.0798H54.829Z" fill="white"/>
<path d="M57.3239 8.23804H58.2812V16.065H57.3239V8.23804Z" fill="white"/>
<path d="M63.532 14.8022C63.532 15.2721 63.561 15.7126 63.6046 16.0797H62.7488L62.6617 15.4042H62.6327C62.3426 15.8301 61.7769 16.1972 61.0227 16.1972C59.9493 16.1972 59.4126 15.4336 59.4126 14.67C59.4126 13.3778 60.544 12.6729 62.5892 12.6876V12.5701C62.5892 12.1296 62.4732 11.3219 61.3853 11.3366C60.8921 11.3366 60.3699 11.4834 60.0073 11.7331L59.7897 11.0869C60.2249 10.8079 60.8631 10.6317 61.5303 10.6317C63.1549 10.6317 63.5465 11.7478 63.5465 12.8197V14.8169L63.532 14.8022ZM62.6037 13.3484C61.5593 13.3337 60.3699 13.5099 60.3699 14.5525C60.3699 15.1987 60.7906 15.4777 61.2692 15.4777C61.9655 15.4777 62.4151 15.0371 62.5602 14.5819C62.5892 14.4791 62.6037 14.3763 62.6037 14.2735V13.3484Z" fill="white"/>
<path d="M65.0116 8.23804H65.9689V11.5862H65.9979C66.3315 10.9841 66.9407 10.617 67.7965 10.617C69.102 10.617 70.0158 11.7183 70.0158 13.3336C70.0158 15.2573 68.8119 16.1971 67.637 16.1971C66.8682 16.1971 66.2735 15.9035 65.8674 15.1986H65.8384L65.7803 16.0797H64.9536C64.9826 15.7126 64.9971 15.1692 64.9971 14.6993V8.25272L65.0116 8.23804ZM65.9834 13.9357C65.9834 14.0532 65.9834 14.1707 66.0124 14.2881C66.201 14.9636 66.7667 15.4189 67.4484 15.4189C68.4638 15.4189 69.044 14.5965 69.044 13.363C69.044 12.2763 68.4928 11.3659 67.4774 11.3659C66.8247 11.3659 66.2155 11.8358 66.0269 12.5553C65.9979 12.6728 65.9689 12.805 65.9689 12.9665V13.921L65.9834 13.9357Z" fill="white"/>
<path d="M71.1617 8.23804H72.119V16.065H71.1617V8.23804Z" fill="white"/>
<path d="M74.1933 13.5686C74.2078 14.8755 75.0346 15.4189 75.9919 15.4189C76.6736 15.4189 77.1088 15.3014 77.4569 15.1546L77.631 15.8447C77.2974 16.0063 76.7026 16.1825 75.8614 16.1825C74.2513 16.1825 73.265 15.0958 73.265 13.4952C73.265 11.8945 74.2078 10.6023 75.7453 10.6023C77.4714 10.6023 77.9066 12.1295 77.9066 13.1134C77.9066 13.319 77.9066 13.4658 77.8776 13.5833H74.1788L74.1933 13.5686ZM76.9928 12.8784C76.9928 12.2764 76.7462 11.3072 75.6728 11.3072C74.701 11.3072 74.2803 12.2176 74.2078 12.8784H76.9928Z" fill="white"/>
<path d="M83.462 16.1971C82.0405 16.1971 80.9381 15.1398 80.9381 13.4511C80.9381 11.6596 82.0985 10.6169 83.549 10.6169C84.9995 10.6169 86.0874 11.733 86.0874 13.3483C86.0874 15.3307 84.7239 16.1971 83.4765 16.1971H83.462ZM83.491 15.4629C84.4048 15.4629 85.0866 14.5965 85.0866 13.3777C85.0866 12.4672 84.6369 11.3365 83.5055 11.3365C82.3741 11.3365 81.8954 12.3938 81.8954 13.407C81.8954 14.5818 82.5482 15.4629 83.4765 15.4629H83.491Z" fill="white"/>
<path d="M87.2333 12.1882C87.2333 11.6302 87.2333 11.1896 87.1898 10.7491H88.0456L88.1036 11.6155H88.1326C88.3937 11.1162 89.0029 10.6169 89.8732 10.6169C90.5984 10.6169 91.7443 11.0575 91.7443 12.8931V16.0797H90.787V12.9959C90.787 12.1442 90.4679 11.4099 89.5686 11.4099C88.9449 11.4099 88.4517 11.8651 88.2776 12.4085C88.2341 12.526 88.2051 12.7022 88.2051 12.8637V16.0797H87.2478V12.1882H87.2333Z" fill="white"/>
<path d="M96.6325 9.45691V10.7345H98.0105V11.4687H96.6325V14.3469C96.6325 15.0077 96.8211 15.3895 97.3578 15.3895C97.6189 15.3895 97.7784 15.3748 97.909 15.3161L97.9525 16.0503C97.7639 16.1238 97.4738 16.1825 97.0967 16.1825C96.6471 16.1825 96.2844 16.021 96.0669 15.7713C95.8058 15.4776 95.6897 14.993 95.6897 14.3763V11.4687H94.8774V10.7345H95.6897V9.7506L96.6325 9.45691Z" fill="white"/>
<path d="M99.0404 8.23807H99.9977V11.5715H100.012C100.157 11.2925 100.404 11.0429 100.694 10.8813C100.984 10.7051 101.318 10.6023 101.68 10.6023C102.391 10.6023 103.522 11.0429 103.522 12.8784V16.0503H102.565V12.9812C102.565 12.1148 102.246 11.3953 101.347 11.3953C100.723 11.3953 100.244 11.8358 100.056 12.3645C99.9977 12.4966 99.9832 12.6435 99.9832 12.8344V16.0503H99.0259V8.22339L99.0404 8.23807Z" fill="white"/>
<path d="M105.568 13.5686C105.582 14.8755 106.409 15.4189 107.366 15.4189C108.048 15.4189 108.483 15.3014 108.831 15.1546L109.005 15.8447C108.672 16.0063 108.077 16.1825 107.236 16.1825C105.626 16.1825 104.639 15.0958 104.639 13.4952C104.639 11.8945 105.582 10.6023 107.12 10.6023C108.846 10.6023 109.281 12.1295 109.281 13.1134C109.281 13.319 109.281 13.4658 109.252 13.5833H105.553L105.568 13.5686ZM108.367 12.8784C108.367 12.2764 108.121 11.3072 107.047 11.3072C106.061 11.3072 105.655 12.2176 105.582 12.8784H108.367Z" fill="white"/>
<path d="M113.139 9.75064C112.777 9.75064 112.545 9.47163 112.545 9.1192C112.545 8.76677 112.791 8.50244 113.168 8.50244C113.545 8.50244 113.777 8.78145 113.777 9.1192C113.777 9.45695 113.531 9.75064 113.154 9.75064H113.139ZM112.675 16.0798V10.7492H113.632V16.0798H112.675Z" fill="white"/>
<path d="M115.213 8.7373C115.663 8.64919 116.272 8.59045 117.027 8.59045C117.969 8.59045 118.651 8.81072 119.086 9.20721C119.492 9.55965 119.739 10.103 119.739 10.7638C119.739 11.4246 119.536 11.9679 119.159 12.3497C118.651 12.8931 117.839 13.1721 116.911 13.1721C116.635 13.1721 116.359 13.1721 116.142 13.1133V16.0943H115.199V8.76667L115.213 8.7373ZM116.156 12.3204C116.359 12.3791 116.635 12.3938 116.94 12.3938C118.1 12.3938 118.782 11.8211 118.782 10.8225C118.782 9.82397 118.1 9.35406 117.056 9.35406C116.649 9.35406 116.33 9.39811 116.156 9.42748V12.3204Z" fill="white"/>
<path d="M120.856 8.23807H121.813V11.5715H121.828C121.987 11.2925 122.219 11.0429 122.51 10.8813C122.8 10.7051 123.133 10.6023 123.496 10.6023C124.207 10.6023 125.338 11.0429 125.338 12.8784V16.0503H124.381V12.9812C124.381 12.1148 124.062 11.3953 123.162 11.3953C122.539 11.3953 122.06 11.8358 121.871 12.3645C121.813 12.4966 121.799 12.6435 121.799 12.8344V16.0503H120.841V8.22339L120.856 8.23807Z" fill="white"/>
<path d="M128.993 16.1971C127.572 16.1971 126.469 15.1398 126.469 13.4511C126.469 11.6596 127.63 10.6169 129.08 10.6169C130.531 10.6169 131.619 11.733 131.619 13.3483C131.619 15.3307 130.255 16.1971 129.008 16.1971H128.993ZM129.037 15.4629C129.951 15.4629 130.632 14.5965 130.632 13.3777C130.632 12.4672 130.183 11.3365 129.051 11.3365C127.92 11.3365 127.441 12.3938 127.441 13.407C127.441 14.5818 128.094 15.4629 129.022 15.4629H129.037Z" fill="white"/>
<path d="M132.779 12.1882C132.779 11.6302 132.779 11.1896 132.736 10.7491H133.591L133.649 11.6155H133.678C133.94 11.1162 134.549 10.6169 135.419 10.6169C136.144 10.6169 137.276 11.0575 137.276 12.8931V16.0797H136.318V12.9959C136.318 12.1442 135.999 11.4099 135.1 11.4099C134.476 11.4099 133.983 11.8651 133.809 12.4085C133.765 12.526 133.736 12.7022 133.736 12.8637V16.0797H132.779V12.1882Z" fill="white"/>
<path d="M139.321 13.5686C139.335 14.8755 140.162 15.4189 141.12 15.4189C141.801 15.4189 142.236 15.3014 142.585 15.1546L142.759 15.8447C142.425 16.0063 141.83 16.1825 140.989 16.1825C139.379 16.1825 138.393 15.0958 138.393 13.4952C138.393 11.8945 139.335 10.6023 140.873 10.6023C142.599 10.6023 143.034 12.1295 143.034 13.1134C143.034 13.319 143.034 13.4658 143.005 13.5833H139.306L139.321 13.5686ZM142.12 12.8784C142.12 12.2764 141.874 11.3072 140.8 11.3072C139.814 11.3072 139.408 12.2176 139.335 12.8784H142.12Z" fill="white"/>
<path d="M44.1098 21.1167L37.6551 40.3684H40.6141L42.5433 34.4651H48.795L50.7821 40.3684H53.8282L47.3445 21.1167H44.1243H44.1098ZM45.6474 24.2739C45.8649 25.1403 46.097 26.0214 46.4016 26.9906L48.1422 32.1009H43.1815L44.8931 26.9612C45.1542 26.1242 45.4008 25.2284 45.6329 24.2739H45.6474Z" fill="white"/>
<path d="M62.1686 26.0947C60.2105 26.0947 58.6439 26.8583 57.5995 28.3121L57.4835 26.4031H54.8581V26.6527C54.9451 27.8422 54.9886 29.1638 54.9886 31.0435V45.875H57.8606V38.9585C58.7599 40.0452 60.1814 40.662 61.7915 40.662C63.4016 40.662 65.0261 40.0011 66.1575 38.7823C67.4195 37.4313 68.0867 35.4929 68.0867 33.1874C68.0867 31.1463 67.5065 29.3694 66.4186 28.0772C65.3452 26.7996 63.8512 26.1094 62.1976 26.1094L62.1686 26.0947ZM61.4579 28.503C64.0253 28.503 65.1712 30.9113 65.1712 33.2902C65.1712 36.3593 63.7062 38.2684 61.3563 38.2684C59.7463 38.2684 58.3538 37.167 57.9622 35.5664C57.8896 35.3167 57.8606 34.9937 57.8606 34.6265V32.2917C57.8606 32.0861 57.9042 31.8218 57.9477 31.5721C57.9477 31.4987 57.9767 31.4106 57.9912 31.3372C58.4263 29.6778 59.8478 28.503 61.4579 28.503Z" fill="white"/>
<path d="M76.9783 26.0947C75.0201 26.0947 73.4535 26.8583 72.4092 28.3121L72.2931 26.4031H69.6677V26.6527C69.7548 27.8422 69.7983 29.1638 69.7983 31.0435V45.875H72.6703V38.9585C73.5551 40.0452 74.9911 40.662 76.6011 40.662C78.2112 40.662 79.8358 40.0011 80.9672 38.7823C82.2291 37.4313 82.8963 35.4929 82.8963 33.1874C82.8963 31.1463 82.3161 29.3694 81.2282 28.0772C80.1549 26.7996 78.6609 26.1094 77.0073 26.1094L76.9783 26.0947ZM76.2675 28.503C78.8349 28.503 79.9808 30.9113 79.9808 33.2902C79.9808 36.3593 78.5158 38.2684 76.166 38.2684C74.5559 38.2684 73.1634 37.167 72.7718 35.5664C72.6993 35.3167 72.6703 34.9937 72.6703 34.6265V32.2917C72.6703 32.0714 72.7138 31.8218 72.7573 31.5721C72.7573 31.4987 72.7863 31.4106 72.8008 31.3372C73.2215 29.6778 74.6575 28.503 76.2675 28.503Z" fill="white"/>
<path d="M95.5447 29.2667C92.8613 28.2094 92.0055 27.387 92.0055 25.8598C92.0055 24.5676 93.0208 23.2753 95.2691 23.2753C97.1257 23.2753 98.3296 23.9361 98.6488 24.127L98.8953 24.2739L99.7076 21.8362L99.5481 21.7481C99.0694 21.4691 97.6914 20.7936 95.3561 20.7936C91.6863 20.7936 89.1189 22.9816 89.1189 26.1241C89.1189 28.6499 90.729 30.4268 94.1667 31.6896C96.6035 32.6148 97.5174 33.5546 97.5174 35.1846C97.5174 37.0202 96.1104 38.1656 93.8621 38.1656C92.3971 38.1656 90.8886 37.7251 89.7137 36.9761L89.4671 36.8146L88.6983 39.2963L88.8434 39.3991C89.9312 40.1333 91.9764 40.662 93.7025 40.662C98.6488 40.662 100.404 37.6076 100.404 34.9937C100.404 32.3798 98.9969 30.6323 95.5447 29.2667Z" fill="white"/>
<path d="M105.568 23.0844L102.739 23.9802V26.4031H100.68V28.738H102.739V35.8601C102.739 37.5782 103.058 38.797 103.74 39.5606C104.378 40.2802 105.365 40.662 106.525 40.662C107.613 40.662 108.382 40.4417 108.744 40.3096L108.904 40.2508L108.773 37.9159L108.498 38.0041C108.135 38.1215 107.758 38.1656 107.163 38.1656C106.046 38.1656 105.568 37.446 105.568 35.772V28.7233H109.034V26.3884H105.568V23.0697V23.0844Z" fill="white"/>
<path d="M116.171 26.0948C112.153 26.0948 109.339 29.1345 109.339 33.4812C109.339 37.8278 112.066 40.6473 115.953 40.6473H115.982C119.275 40.6473 122.814 38.3271 122.814 33.2315C122.814 31.161 122.176 29.3841 120.987 28.0772C119.783 26.7703 118.115 26.0801 116.171 26.0801V26.0948ZM116.084 28.4003C118.666 28.4003 119.855 30.9554 119.855 33.3343C119.855 36.2566 118.245 38.3712 116.04 38.3712H116.011C113.836 38.3712 112.24 36.286 112.24 33.4224C112.24 30.926 113.429 28.4149 116.084 28.4149V28.4003Z" fill="white"/>
<path d="M131.619 26.2269L131.445 26.1828C131.198 26.1241 130.981 26.0947 130.734 26.0947C129.225 26.0947 127.876 26.9905 127.122 28.4443L127.035 26.4031H124.453V26.6527C124.54 27.7982 124.584 29.1051 124.584 30.8526L124.555 40.3683H127.427V32.9525C127.427 32.5413 127.456 32.1595 127.499 31.8218C127.818 30.0449 129.008 28.8848 130.531 28.8848C130.821 28.8848 131.053 28.9142 131.3 28.9289L131.604 28.9582V26.2416L131.619 26.2269Z" fill="white"/>
<path d="M138.088 26.0654C134.259 26.0654 131.59 29.1639 131.59 33.5987C131.59 38.0335 134.244 40.6327 138.364 40.6327C140.525 40.6327 142.033 40.1481 142.918 39.7516L143.092 39.6782L142.541 37.5048L142.294 37.6076C141.511 37.9307 140.467 38.2537 138.697 38.2537C137.45 38.2537 134.563 37.8426 134.389 34.0245L143.672 34.0539L143.716 33.863C143.774 33.5693 143.803 33.1728 143.803 32.6442C143.803 29.6044 142.309 26.0654 138.102 26.0654H138.088ZM137.899 28.2828C138.77 28.2828 139.48 28.5618 140.017 29.1052C140.844 29.9569 140.989 31.2198 141.003 31.8218H134.447C134.708 30.1331 135.753 28.2975 137.899 28.2975V28.2828Z" fill="white"/>
</g>
<defs>
<clipPath id="clip0_3394_87">
<rect width="154" height="51" fill="white"/>
</clipPath>
</defs>
</svg>
