<svg width="16" height="18" viewBox="0 0 16 18" fill="none" xmlns="http://www.w3.org/2000/svg">
<path d="M7.9921 17.4236C6.52156 17.4236 5.17888 17.0454 3.96408 16.2888C2.75994 15.5322 1.79556 14.5145 1.07094 13.2358C0.356981 11.957 0 10.5451 0 8.99997C0 7.83845 0.207795 6.75153 0.623384 5.73919C1.03897 4.7162 1.60908 3.82109 2.33369 3.05385C3.06897 2.27595 3.92146 1.66855 4.89117 1.23165C5.86088 0.794744 6.89452 0.576294 7.9921 0.576294C9.26018 0.576294 10.4164 0.848025 11.4607 1.39149C12.5156 1.93495 13.4054 2.67555 14.13 3.61329C14.8653 4.55103 15.3875 5.61132 15.6965 6.79415C16.0162 7.97698 16.0695 9.20777 15.8563 10.4865H4.76329C4.90182 10.9554 5.11495 11.3816 5.40266 11.7652C5.70103 12.1382 6.06334 12.4366 6.48959 12.6604C6.92649 12.8841 7.42733 13.0014 7.9921 13.012C8.54622 13.0227 9.05772 12.8948 9.52659 12.6284C9.99546 12.362 10.3951 12.005 10.7254 11.5574L15.233 12.5964C14.5829 14.0137 13.6132 15.1752 12.3238 16.081C11.0344 16.9761 9.59052 17.4236 7.9921 17.4236ZM4.60345 7.22572H11.3967C11.2582 6.69292 11.0238 6.21339 10.6934 5.78715C10.3631 5.3609 9.96349 5.02523 9.49462 4.78014C9.03641 4.53505 8.53557 4.4125 7.9921 4.4125C7.4593 4.4125 6.95846 4.53505 6.48959 4.78014C6.03137 5.02523 5.6371 5.3609 5.30676 5.78715C4.98707 6.20273 4.75264 6.68226 4.60345 7.22572Z" fill="#12C6FF"/>
</svg>
