<?xml version="1.0" encoding="utf-8"?>
<!-- Generator: Adobe Illustrator 26.5.0, SVG Export Plug-In . SVG Version: 6.00 Build 0)  -->
<svg version="1.1" id="Layer_1" xmlns="http://www.w3.org/2000/svg" xmlns:xlink="http://www.w3.org/1999/xlink" x="0px" y="0px"
	 viewBox="0 0 1080 1080" style="enable-background:new 0 0 1080 1080;" xml:space="preserve">
<style type="text/css">
	.st0{fill-rule:evenodd;clip-rule:evenodd;fill:#203B81;}
	.st1{opacity:0.05;fill-rule:evenodd;clip-rule:evenodd;fill:#FDDEE5;}
	
		.st2{clip-path:url(#SVGID_00000034799458758460775520000003755257167872300424_);fill:url(#SVGID_00000013175486656425357590000005805273468168902295_);}
	.st3{fill-rule:evenodd;clip-rule:evenodd;fill:url(#SVGID_00000063609668088384423120000001112145185758520493_);}
	.st4{filter:url(#Adobe_OpacityMaskFilter);}
	.st5{fill:url(#SVGID_00000061437969310317186630000002193295979471665063_);}
	.st6{mask:url(#SVGID_00000163759694284902560550000002638217979780825791_);fill-rule:evenodd;clip-rule:evenodd;fill:#FFFFFF;}
	
		.st7{clip-path:url(#SVGID_00000031199985816758418670000009780991115941314461_);fill:url(#SVGID_00000182488694871133642240000005153010300246250374_);}
	.st8{fill-rule:evenodd;clip-rule:evenodd;fill:url(#SVGID_00000152240090814163089440000005398847465485300881_);}
	.st9{fill-rule:evenodd;clip-rule:evenodd;fill:#FDDEE5;}
	.st10{fill-rule:evenodd;clip-rule:evenodd;fill:#CEDEFF;}
	.st11{fill-rule:evenodd;clip-rule:evenodd;fill:#12C6FF;}
	.st12{fill:#203B81;}
	
		.st13{clip-path:url(#SVGID_00000100353768938356974800000012381357662787948725_);fill:url(#SVGID_00000168809136147862535970000013185401030350374803_);}
	.st14{fill-rule:evenodd;clip-rule:evenodd;fill:url(#SVGID_00000016047436495936546490000012842958956191208101_);}
	.st15{filter:url(#Adobe_OpacityMaskFilter_00000180328228090780605330000016803868071136552383_);}
	.st16{fill:url(#SVGID_00000115504758244688163260000007012533456591383726_);}
	.st17{mask:url(#SVGID_00000052812339567589094320000017228318167639205784_);fill-rule:evenodd;clip-rule:evenodd;fill:#FFFFFF;}
	
		.st18{clip-path:url(#SVGID_00000024691698455678951830000002723126230435021456_);fill:url(#SVGID_00000139266289994442862070000010154617747809377421_);}
	.st19{fill-rule:evenodd;clip-rule:evenodd;fill:url(#SVGID_00000103260239392020455610000012909779209323736982_);}
	
		.st20{clip-path:url(#SVGID_00000102535235521851978990000017662435032990648482_);fill:url(#SVGID_00000100365466417197336500000012100996687761431437_);}
	.st21{fill-rule:evenodd;clip-rule:evenodd;fill:url(#SVGID_00000105413383434680280740000012318551021437536405_);}
	.st22{filter:url(#Adobe_OpacityMaskFilter_00000021841918795651625620000006087140806607296654_);}
	.st23{fill:url(#SVGID_00000143595051920363662600000007907764693306538389_);}
	.st24{mask:url(#SVGID_00000084517111079080076130000007434980907190187966_);fill-rule:evenodd;clip-rule:evenodd;fill:#FFFFFF;}
	
		.st25{clip-path:url(#SVGID_00000112614403097811809560000002859750042646405305_);fill:url(#SVGID_00000159427531783536554710000009055979771508734905_);}
	.st26{fill-rule:evenodd;clip-rule:evenodd;fill:url(#SVGID_00000008849198649498903570000011573379100657197212_);}
	
		.st27{clip-path:url(#SVGID_00000127752306180523008140000014056878300619501187_);fill:url(#SVGID_00000128443699941886027450000011145381700935775417_);}
	.st28{fill-rule:evenodd;clip-rule:evenodd;fill:url(#SVGID_00000082337034043224759530000005784469592171821246_);}
	.st29{filter:url(#Adobe_OpacityMaskFilter_00000100365398941663855110000000826493993995790485_);}
	.st30{fill:url(#SVGID_00000183248858408043319160000018191389612100524950_);}
	.st31{mask:url(#SVGID_00000019664454169038662720000015198000819803250087_);fill-rule:evenodd;clip-rule:evenodd;fill:#FFFFFF;}
	
		.st32{clip-path:url(#SVGID_00000079468839237754676820000014996767642004396981_);fill:url(#SVGID_00000094590149681587134570000013390638646068207018_);}
	.st33{fill-rule:evenodd;clip-rule:evenodd;fill:url(#SVGID_00000074430284250661457970000012529798339899588784_);}
	
		.st34{clip-path:url(#SVGID_00000138545206416830120560000000618620898633876666_);fill:url(#SVGID_00000039123613213459935730000005694667765838618541_);}
	.st35{fill-rule:evenodd;clip-rule:evenodd;fill:url(#SVGID_00000026862330405663396820000014954373923831150008_);}
	.st36{filter:url(#Adobe_OpacityMaskFilter_00000093896362882975810820000006881189028438341305_);}
	.st37{fill:url(#SVGID_00000050664815488740249590000013500933562007018391_);}
	.st38{mask:url(#SVGID_00000060734978830850205020000008520612703208026028_);fill-rule:evenodd;clip-rule:evenodd;fill:#FFFFFF;}
	
		.st39{clip-path:url(#SVGID_00000006694726019085381740000013192164208421913483_);fill:url(#SVGID_00000116956521830839743480000010957423889514062993_);}
	.st40{fill-rule:evenodd;clip-rule:evenodd;fill:url(#SVGID_00000082325878472023303280000003089841071254150040_);}
	
		.st41{clip-path:url(#SVGID_00000044889870356551093960000002881868744644941240_);fill:url(#SVGID_00000102514722216101426610000009651473670995874726_);}
	.st42{fill-rule:evenodd;clip-rule:evenodd;fill:url(#SVGID_00000155834238444003345280000013436418064776611744_);}
	.st43{filter:url(#Adobe_OpacityMaskFilter_00000150812508551600115000000003009723863770377868_);}
	.st44{fill:url(#SVGID_00000103225284285679831660000008074431186659168644_);}
	.st45{mask:url(#SVGID_00000147917814095249611210000006836328777025539993_);fill-rule:evenodd;clip-rule:evenodd;fill:#FFFFFF;}
	
		.st46{clip-path:url(#SVGID_00000105410574983397210070000015263934304920692358_);fill:url(#SVGID_00000005243700604320724270000000724588310547292815_);}
	.st47{fill-rule:evenodd;clip-rule:evenodd;fill:url(#SVGID_00000125590988856077821410000017510988619125330598_);}
	
		.st48{clip-path:url(#SVGID_00000154410239385178469340000017137346341472226721_);fill:url(#SVGID_00000182492724934065705700000018271127274422883216_);}
	.st49{fill-rule:evenodd;clip-rule:evenodd;fill:url(#SVGID_00000150797702232058417260000005621456259670681504_);}
	.st50{filter:url(#Adobe_OpacityMaskFilter_00000140698748539940659610000010431895677380971943_);}
	.st51{fill:url(#SVGID_00000042721988535293196810000004316240714903967923_);}
	.st52{mask:url(#SVGID_00000168102292007240964540000005861168220313658809_);fill-rule:evenodd;clip-rule:evenodd;fill:#FFFFFF;}
	
		.st53{clip-path:url(#SVGID_00000145766681574136521990000012044073969311087744_);fill:url(#SVGID_00000090981742344031720470000015753431043780008621_);}
	.st54{fill-rule:evenodd;clip-rule:evenodd;fill:url(#SVGID_00000083064338566436928070000010397261175431844741_);}
	
		.st55{clip-path:url(#SVGID_00000001638170149400306210000002775477167898560668_);fill:url(#SVGID_00000141439878706156531010000010829314974759723415_);}
	.st56{fill-rule:evenodd;clip-rule:evenodd;fill:url(#SVGID_00000058575043394958521820000017493060491299786401_);}
	.st57{filter:url(#Adobe_OpacityMaskFilter_00000113318479438375543810000014529925223129730454_);}
	.st58{fill:url(#SVGID_00000002359757854947334800000003932631290576828860_);}
	.st59{mask:url(#SVGID_00000034064467929721172590000006184965088141797560_);fill-rule:evenodd;clip-rule:evenodd;fill:#FFFFFF;}
	
		.st60{clip-path:url(#SVGID_00000054261936955412276380000004703579848448445335_);fill:url(#SVGID_00000028282625371552511110000011006890594425298861_);}
	.st61{fill-rule:evenodd;clip-rule:evenodd;fill:url(#SVGID_00000159441202440606331500000010199815511634330286_);}
</style>
<g>
	<path class="st0" d="M667.8,232.25c77.26-50.67,166.82-124.44,234.46-118.04c70.94,6.71,161.16,62.09,151.03,617.42
		c-4.28,235.25-90.7,57.09-132.92-8.78c-59.75-93.2-168.51-202.5-211.95-190.53c-96.8-71.06-333.53,1.17-333.53,1.17
		c-40.97-18.91-153.92,93.72-215.24,189.36C117.42,788.71,31,966.87,26.72,731.62C16.59,176.29,106.81,120.91,177.75,114.2
		c66.05-6.25,153,63.94,228.98,114.43C504.35,293.49,569.18,296.92,667.8,232.25"/>
	<path class="st1" d="M727.39,191.61c60.99-41.85,124.09-82.2,174.86-77.4c28.49,2.7,60.09,13.28,87.05,60.92
		C875.49,78.76,812.92,373.55,812.92,373.55c22.01-42.03,48.03-60.04,48.03-60.04c-53.04,104.07-75.7,254.42-75.7,254.42l0,0.01
		c-31.23-25.57-59.34-40.44-76.84-35.62c-16.9-12.41-38.07-20.43-61.49-25.25c-2.69-11.06-3.77-19.67-3.11-23.44
		c3.89-22.09,78.06-194.13,80.06-222.15C724.6,251.12,722.89,224.09,727.39,191.61"/>
	<path class="st1" d="M352.6,191.61c-60.99-41.85-124.1-82.2-174.86-77.4c-28.49,2.7-60.09,13.28-87.05,60.92
		c113.81-96.36,176.38,198.43,176.38,198.43c-22.02-42.03-48.03-60.04-48.03-60.04c53.04,104.07,75.7,254.42,75.7,254.42l0,0.01
		c31.23-25.57,59.34-40.44,76.84-35.62c16.9-12.41,38.07-20.43,61.49-25.25c2.69-11.06,3.77-19.67,3.11-23.44
		c-3.89-22.09-78.05-194.13-80.06-222.15C355.4,251.12,357.11,224.09,352.6,191.61"/>
	<g>
		<defs>
			<path id="SVGID_00000139273398207465045770000018128642043513168264_" d="M645.28,246.49
				c81.86-49.55,182.65-139.32,256.97-132.29c28.49,2.69,60.09,13.28,87.05,60.92C777.01-90.41,659.96,990.03,540,965.79
				C420.04,990.03,302.99-90.41,90.69,175.12c26.96-47.64,58.56-58.22,87.05-60.92c75.66-7.16,178.74,85.99,261.37,134.92
				C506.4,288.97,578.71,286.79,645.28,246.49"/>
		</defs>
		
			<linearGradient id="SVGID_00000047774603542655337990000002587585804007292588_" gradientUnits="userSpaceOnUse" x1="90.6947" y1="540.0001" x2="989.3052" y2="540.0001">
			<stop  offset="0" style="stop-color:#12C6FF"/>
			<stop  offset="0.9955" style="stop-color:#CEDEFF"/>
		</linearGradient>
		
			<use xlink:href="#SVGID_00000139273398207465045770000018128642043513168264_"  style="overflow:visible;fill-rule:evenodd;clip-rule:evenodd;fill:url(#SVGID_00000047774603542655337990000002587585804007292588_);"/>
		<clipPath id="SVGID_00000031203286277612506250000015092750592888409007_">
			<use xlink:href="#SVGID_00000139273398207465045770000018128642043513168264_"  style="overflow:visible;"/>
		</clipPath>
		
			<linearGradient id="SVGID_00000004504058312920979430000004151604836860793271_" gradientUnits="userSpaceOnUse" x1="541.7679" y1="892.9486" x2="539.3185" y2="279.0114">
			<stop  offset="0" style="stop-color:#12C6FF"/>
			<stop  offset="0.9955" style="stop-color:#CEDEFF"/>
		</linearGradient>
		
			<rect x="90.69" y="-90.41" style="clip-path:url(#SVGID_00000031203286277612506250000015092750592888409007_);fill:url(#SVGID_00000004504058312920979430000004151604836860793271_);" width="898.61" height="1080.45"/>
	</g>
	
		<linearGradient id="SVGID_00000160164687488210038290000012801373769370692524_" gradientUnits="userSpaceOnUse" x1="716.5521" y1="329.3546" x2="991.1205" y2="329.3546">
		<stop  offset="0" style="stop-color:#12C6FF"/>
		<stop  offset="1" style="stop-color:#CEDEFF"/>
	</linearGradient>
	<path style="fill-rule:evenodd;clip-rule:evenodd;fill:url(#SVGID_00000160164687488210038290000012801373769370692524_);" d="
		M991.12,176.42C877.24,33.99,790.78,278.84,716.56,532.73l-0.01,0C716.55,532.73,834.93-44.69,991.12,176.42"/>
	<defs>
		<filter id="Adobe_OpacityMaskFilter" filterUnits="userSpaceOnUse" x="162.38" y="122.06" width="755.25" height="336">
			<feColorMatrix  type="matrix" values="1 0 0 0 0  0 1 0 0 0  0 0 1 0 0  0 0 0 1 0"/>
		</filter>
	</defs>
	
		<mask maskUnits="userSpaceOnUse" x="162.38" y="122.06" width="755.25" height="336" id="SVGID_00000055688993096927877900000000660835515194817187_">
		<g class="st4">
			
				<linearGradient id="SVGID_00000093170243682423027130000001812079610372237444_" gradientUnits="userSpaceOnUse" x1="-124.2825" y1="1193.738" x2="-124.2825" y2="1880.2397" gradientTransform="matrix(1 0 0 1 664.2833 -1243.8179)">
				<stop  offset="0" style="stop-color:#FFFFFF"/>
				<stop  offset="0.1229" style="stop-color:#D6D6D6"/>
				<stop  offset="0.3675" style="stop-color:#8B8B8B"/>
				<stop  offset="0.5863" style="stop-color:#4F4F4F"/>
				<stop  offset="0.7712" style="stop-color:#242424"/>
				<stop  offset="0.9149" style="stop-color:#0A0A0A"/>
				<stop  offset="1" style="stop-color:#000000"/>
			</linearGradient>
			
				<rect x="162.38" y="122.06" style="fill:url(#SVGID_00000093170243682423027130000001812079610372237444_);" width="755.25" height="336"/>
		</g>
	</mask>
	
		<path style="mask:url(#SVGID_00000055688993096927877900000000660835515194817187_);fill-rule:evenodd;clip-rule:evenodd;fill:#FFFFFF;" d="
		M162.38,125.07c175.5,15.29,287.07,350.26,375.99,332.29c119.97-24.22,203.18-316.95,379.26-332.29
		c-5.07-1.23-10.44-2.12-16.15-2.66c-25.84-2.44-54.18,8.23-77.02,19.34c-30.57,14.86-59.87,34.41-87.91,53.58
		c-28.73,19.64-57.23,40.2-87,58.22c-69.13,41.85-144.71,44.08-214.64,2.67c-31.38-18.58-61.35-40.3-91.46-60.89
		c-28.04-19.17-57.34-38.72-87.91-53.58c-22.85-11.11-51.19-21.78-77.02-19.34C172.81,122.95,167.44,123.84,162.38,125.07"/>
	<g>
		<defs>
			<path id="SVGID_00000042711595800609796850000003267994987513879178_" d="M90.69,175.12
				C204.57,32.69,291.04,277.54,365.25,531.43l0.01,0C365.26,531.42,246.89-46,90.69,175.12"/>
		</defs>
		<clipPath id="SVGID_00000163762242321122964380000002273544218847966864_">
			<use xlink:href="#SVGID_00000042711595800609796850000003267994987513879178_"  style="overflow:visible;"/>
		</clipPath>
		
			<linearGradient id="SVGID_00000183235945887299453180000015463068055498446511_" gradientUnits="userSpaceOnUse" x1="422.2644" y1="485.8835" x2="143.5995" y2="137.1045">
			<stop  offset="0" style="stop-color:#022B7D"/>
			<stop  offset="0.2" style="stop-color:#23E5E4"/>
			<stop  offset="0.41" style="stop-color:#F3F3F3"/>
			<stop  offset="0.58" style="stop-color:#23E5E4"/>
			<stop  offset="1" style="stop-color:#022B7D"/>
		</linearGradient>
		
			<rect x="90.69" y="-46" style="clip-path:url(#SVGID_00000163762242321122964380000002273544218847966864_);fill:url(#SVGID_00000183235945887299453180000015463068055498446511_);" width="274.57" height="577.42"/>
	</g>
	
		<linearGradient id="SVGID_00000037680422612006467500000013429158169444043448_" gradientUnits="userSpaceOnUse" x1="90.6947" y1="328.0502" x2="365.2631" y2="328.0502">
		<stop  offset="0" style="stop-color:#12C6FF"/>
		<stop  offset="1" style="stop-color:#CEDEFF"/>
	</linearGradient>
	<path style="fill-rule:evenodd;clip-rule:evenodd;fill:url(#SVGID_00000037680422612006467500000013429158169444043448_);" d="
		M90.69,175.12C204.57,32.69,291.04,277.54,365.25,531.43l0.01,0C365.26,531.42,246.89-46,90.69,175.12"/>
</g>
</svg>
