<svg width="154" height="50" viewBox="0 0 154 50" fill="none" xmlns="http://www.w3.org/2000/svg">
<g clip-path="url(#clip0_3394_120)">
<path d="M6.80286 0H147.183C150.939 0 153.986 3.02332 153.986 6.75209V43.2335C153.986 46.9623 150.939 49.9856 147.183 49.9856H6.80286C3.04606 49.9856 0 46.9623 0 43.2335V6.75209C0 3.02332 3.04606 0 6.80286 0Z" fill="#231F20"/>
<mask id="mask0_3394_120" style="mask-type:luminance" maskUnits="userSpaceOnUse" x="11" y="10" width="30" height="34">
<path d="M33.3761 22.0127L26.4282 18.0392C26.4282 18.0392 13.7798 10.7832 13.0401 10.3657C12.3003 9.9482 11.5605 10.1929 11.5605 11.0855V42.3553C11.5605 43.0176 12.0972 43.3055 12.7355 42.9456C13.3882 42.5713 26.4427 35.0994 26.4427 35.0994L33.3906 31.1259C33.3906 31.1259 39.2797 27.757 40.063 27.2963C40.8462 26.85 40.7737 26.231 40.1065 25.871C39.4392 25.5111 33.3906 22.0127 33.3906 22.0127H33.3761Z" fill="white"/>
</mask>
<g mask="url(#mask0_3394_120)">
<path d="M11.5462 9.63147V26.5621V43.4927L28.7492 26.5621L11.5462 9.63147Z" fill="url(#paint0_linear_3394_120)"/>
<path d="M33.3763 22.0128L26.4284 18.0248L11.5462 9.50195V9.63152L28.7492 26.5621L33.3763 22.0128Z" fill="url(#paint1_linear_3394_120)"/>
<path d="M11.5462 43.4927V43.6079L26.4284 35.085L33.3763 31.0971L28.7492 26.5621L11.5462 43.4927Z" fill="url(#paint2_linear_3394_120)"/>
<path d="M33.3761 22.0127L28.749 26.5621L33.3761 31.0971L41.3103 26.5621L33.3761 22.0127Z" fill="url(#paint3_linear_3394_120)"/>
</g>
<path d="M119.855 33.1702C119.202 33.1702 118.622 33.055 118.086 32.8103C117.549 32.5799 117.099 32.2056 116.737 31.7161H116.635C116.708 32.292 116.737 32.8391 116.737 33.3574V37.4029H115.228V23.1357H116.446L116.65 24.4889H116.722C117.114 23.9563 117.563 23.5676 118.071 23.3228C118.579 23.0781 119.173 22.9629 119.841 22.9629C121.161 22.9629 122.176 23.4092 122.887 24.3018C123.597 25.1944 123.96 26.4469 123.96 28.0593C123.96 29.6718 123.597 30.9387 122.872 31.8313C122.147 32.7239 121.132 33.1702 119.841 33.1702H119.855ZM119.638 24.2298C118.622 24.2298 117.897 24.5033 117.433 25.0648C116.983 25.6263 116.751 26.5045 116.737 27.7282V28.0593C116.737 29.4414 116.969 30.4348 117.433 31.0251C117.897 31.6154 118.637 31.9177 119.667 31.9177C120.522 31.9177 121.19 31.5722 121.683 30.8811C122.161 30.1901 122.408 29.2399 122.408 28.0306C122.408 26.8212 122.161 25.8566 121.683 25.2088C121.19 24.5465 120.508 24.2298 119.638 24.2298Z" fill="#F9F9F9"/>
<path d="M127.456 32.9975H125.947V19.0182H127.456V32.9975Z" fill="#F9F9F9"/>
<path d="M136.086 32.9975L135.782 31.601H135.709C135.216 32.22 134.723 32.6375 134.23 32.8535C133.736 33.0694 133.127 33.1846 132.387 33.1846C131.401 33.1846 130.632 32.9399 130.081 32.436C129.53 31.9321 129.24 31.2123 129.24 30.2909C129.24 28.3041 130.835 27.2676 134.041 27.1668L135.724 27.1092V26.5045C135.724 25.7271 135.55 25.1656 135.216 24.7913C134.882 24.417 134.346 24.2442 133.606 24.2442C132.779 24.2442 131.836 24.489 130.806 24.9929L130.342 23.8555C130.835 23.5964 131.372 23.3804 131.952 23.2365C132.533 23.0925 133.113 23.0061 133.707 23.0061C134.897 23.0061 135.767 23.2652 136.333 23.7835C136.899 24.3018 137.189 25.1368 137.189 26.2886V33.0119H136.072L136.086 32.9975ZM132.692 31.9465C133.62 31.9465 134.36 31.6874 134.897 31.1835C135.434 30.6796 135.695 29.9597 135.695 29.0384V28.1458L134.186 28.2033C132.997 28.2465 132.126 28.4337 131.604 28.7504C131.082 29.0815 130.806 29.5854 130.806 30.2765C130.806 30.8092 130.966 31.2267 131.3 31.5002C131.633 31.7881 132.083 31.9177 132.678 31.9177L132.692 31.9465Z" fill="#F9F9F9"/>
<path d="M138.073 23.15H139.684L141.859 28.7648C142.338 30.0461 142.628 30.9675 142.744 31.5433H142.817C142.889 31.241 143.063 30.7083 143.31 29.9741C143.556 29.2399 144.383 26.9652 145.761 23.15H147.371L143.107 34.3651C142.686 35.4737 142.193 36.2655 141.627 36.7262C141.062 37.1869 140.365 37.4172 139.553 37.4172C139.089 37.4172 138.639 37.3596 138.189 37.2589V36.0639C138.523 36.1359 138.886 36.1647 139.306 36.1647C140.336 36.1647 141.076 35.5888 141.511 34.4371L142.062 33.0406L138.059 23.1356L138.073 23.15Z" fill="#F9F9F9"/>
<path d="M92.0199 24.057C92.4986 24.4457 93.4995 25.2663 93.4995 26.8355C93.4995 28.4048 92.6292 29.0814 91.7589 29.7581C91.4833 30.0316 91.1787 30.3196 91.1787 30.7659C91.1787 31.2122 91.4833 31.4713 91.7153 31.6441L92.4696 32.2199C93.3834 32.983 94.2102 33.6884 94.2102 35.0993C94.2102 37.0285 92.3245 38.9864 88.7563 38.9864C85.7538 38.9864 84.2888 37.5611 84.2888 36.0351C84.2888 35.3008 84.6659 34.2499 85.8843 33.5156C87.1753 32.7382 88.9159 32.6374 89.8442 32.5655C89.5541 32.1911 89.2205 31.8024 89.2205 31.169C89.2205 30.8234 89.322 30.6075 89.4235 30.3627C89.1915 30.3771 88.9739 30.4059 88.7563 30.4059C86.5515 30.4059 85.3186 28.7791 85.3186 27.1667C85.3186 26.2165 85.7538 25.1655 86.6531 24.4025C87.8425 23.4379 89.2495 23.2651 90.3664 23.2651H94.6454L93.3109 24.0138H92.0199V24.057ZM90.5404 33.2133C90.3809 33.1989 90.2648 33.1989 90.0618 33.1989C89.8732 33.1989 88.7563 33.2421 87.886 33.53C87.4364 33.6884 86.1019 34.1923 86.1019 35.6464C86.1019 37.1004 87.5379 38.1658 89.7572 38.1658C91.7443 38.1658 92.8032 37.2156 92.8032 35.9343C92.8032 34.8833 92.1215 34.3219 90.5404 33.2133ZM91.1496 29.2974C91.6283 28.8223 91.6718 28.16 91.6718 27.8001C91.6718 26.3173 90.787 24.0138 89.0609 24.0138C88.5242 24.0138 87.944 24.2873 87.6104 24.6904C87.2623 25.1223 87.1608 25.6838 87.1608 26.2165C87.1608 27.5986 87.973 29.8877 89.7572 29.8877C90.2793 29.8877 90.8305 29.6429 91.1641 29.3118L91.1496 29.2974Z" fill="#F9F9F9"/>
<path d="M78.9509 32.8822C75.6582 32.8822 73.9031 30.334 73.9031 28.0305C73.9031 25.3383 76.1224 23.0348 79.27 23.0348C82.4176 23.0348 84.2162 25.3959 84.2162 27.8865C84.2162 30.3771 82.3306 32.8822 78.9509 32.8822ZM81.5473 31.2122C82.0405 30.5499 82.171 29.7293 82.171 28.9231C82.171 27.1091 81.3007 23.6539 78.7333 23.6539C78.0516 23.6539 77.3698 23.9274 76.8622 24.3593C76.0499 25.0791 75.9048 25.9861 75.9048 26.8643C75.9048 28.8943 76.9202 32.2487 79.4296 32.2487C80.2418 32.2487 81.0686 31.86 81.5473 31.1978V31.2122Z" fill="#F9F9F9"/>
<path d="M67.724 32.8822C64.4314 32.8822 62.6617 30.334 62.6617 28.0305C62.6617 25.3383 64.881 23.0348 68.0286 23.0348C71.1762 23.0348 72.9748 25.3959 72.9748 27.8865C72.9748 30.3771 71.0892 32.8822 67.7095 32.8822H67.724ZM70.3059 31.2122C70.7991 30.5499 70.9296 29.7293 70.9296 28.9231C70.9296 27.1091 70.0593 23.6539 67.4919 23.6539C66.8102 23.6539 66.1284 23.9274 65.6208 24.3593C64.8085 25.0791 64.6634 25.9861 64.6634 26.8643C64.6634 28.8943 65.6788 32.2487 68.1882 32.2487C69.0004 32.2487 69.8272 31.86 70.3059 31.1978V31.2122Z" fill="#F9F9F9"/>
<path d="M61.0807 32.5511L58.1072 33.2277C56.9033 33.4149 55.8154 33.5732 54.6695 33.5732C48.9255 33.5732 46.7352 29.3694 46.7352 26.0869C46.7352 22.0702 49.8393 18.3558 55.1482 18.3558C56.2795 18.3558 57.3529 18.5142 58.3393 18.7877C59.9058 19.2196 60.6311 19.7523 61.0952 20.0691L59.3691 21.6959L58.6439 21.8543L59.166 21.0336C58.4553 20.357 57.1644 19.0901 54.713 19.0901C51.4204 19.0901 48.94 21.5663 48.94 25.1943C48.94 29.0814 51.7685 32.7382 56.3086 32.7382C57.643 32.7382 58.3248 32.4647 58.9485 32.2199V28.8943L55.8009 29.0526L57.469 28.16H61.8785L61.3418 28.6783C61.1968 28.8079 61.1677 28.8511 61.1387 29.0094C61.1242 29.1966 61.0952 29.8013 61.0952 30.0028V32.5223L61.0807 32.5511Z" fill="#F9F9F9"/>
<path d="M98.6053 31.9608C97.9235 31.9032 97.7785 31.7736 97.7785 30.9674V19.2628C97.7785 19.2628 97.7785 19.1765 97.7785 19.1333C97.8655 18.4134 98.0686 18.2839 98.7213 17.9095H95.7478L94.1812 18.6582H95.7768V31.4281C95.7768 31.8456 95.6897 31.9032 95.2111 32.5223H98.8954L99.6641 32.076C99.316 32.0328 98.9534 32.0184 98.6053 31.9752V31.9608Z" fill="#F9F9F9"/>
<path d="M107.076 32.1479C106.844 32.2775 106.627 32.4215 106.394 32.5223C105.713 32.8246 105.002 32.911 104.393 32.911C103.726 32.911 102.696 32.8678 101.637 32.1048C100.172 31.0826 99.5336 29.3118 99.5336 27.7713C99.5336 24.5896 102.144 23.0348 104.277 23.0348C105.016 23.0348 105.785 23.2219 106.409 23.6107C107.439 24.2873 107.714 25.1655 107.859 25.6406L103 27.5986L101.405 27.7281C101.927 30.334 103.697 31.86 105.669 31.86C106.728 31.86 107.497 31.4857 108.193 31.1402L107.091 32.1623L107.076 32.1479ZM105.133 26.0293C105.524 25.8854 105.727 25.7558 105.727 25.4822C105.727 24.6616 104.799 23.7114 103.682 23.7114C102.855 23.7114 101.303 24.3449 101.303 26.562C101.303 26.9075 101.347 27.2818 101.361 27.6562L105.133 26.0293Z" fill="#F9F9F9"/>
<path d="M109.078 23.1788V24.5321H108.918V23.1788H108.469V23.0348H109.542V23.1788H109.092H109.078Z" fill="#F9F9F9"/>
<path d="M110.935 24.5321V23.1644L110.514 24.5321H110.383L109.963 23.1644V24.5321H109.818V23.0348H110.079L110.456 24.2441L110.833 23.0348H111.094V24.5321H110.949H110.935Z" fill="#F9F9F9"/>
<path d="M50.8692 14.3536H49.8393C49.8393 14.2097 49.7378 13.8066 49.5492 13.1587H48.0552C47.8521 13.8066 47.7506 14.2097 47.7506 14.3536H46.7787C46.7787 14.2673 47.0253 13.5906 47.533 12.2949C48.0407 11.0136 48.2873 10.2938 48.2873 10.1642H49.5057C49.5057 10.2794 49.7378 10.9848 50.1874 12.2517C50.6371 13.5186 50.8692 14.2241 50.8692 14.3392V14.3536ZM49.3752 12.5397C49.0125 11.4311 48.824 10.8408 48.824 10.7545H48.7659C48.7659 10.8408 48.5774 11.4311 48.2002 12.5397H49.3752Z" fill="#F9F9FA"/>
<path d="M55.0466 14.3536H54.2488C54.2488 14.2673 53.9587 13.8066 53.364 12.9572C52.7403 12.079 52.3922 11.4743 52.3051 11.1432H52.2471C52.3051 11.6183 52.3342 12.0358 52.3342 12.4101C52.3342 12.9428 52.3487 13.5762 52.3777 14.3392H51.5799C51.6089 13.677 51.6234 12.9428 51.6234 12.1509C51.6234 11.3591 51.6089 10.7113 51.5799 10.1642H52.5372C52.5372 10.2794 52.7983 10.7257 53.335 11.5175C53.9007 12.3525 54.2343 12.9284 54.3068 13.2307H54.3504C54.2923 12.7556 54.2778 12.3237 54.2778 11.9494C54.2778 11.3735 54.2633 10.7688 54.2343 10.1642H55.0466C55.0176 10.6969 55.0031 11.3591 55.0031 12.1509C55.0031 12.9428 55.0176 13.6914 55.0466 14.3392V14.3536Z" fill="#F9F9FA"/>
<path d="M59.7318 12.1077C59.7318 12.7124 59.5287 13.2451 59.137 13.7058C58.7454 14.1665 58.1942 14.3824 57.4835 14.3824C57.1644 14.3824 56.7292 14.3824 56.1635 14.3392C56.1925 13.6914 56.207 12.9572 56.207 12.1509C56.207 11.3447 56.207 10.7113 56.1635 10.1642H56.7292C56.8162 10.1642 56.9613 10.1642 57.1499 10.1642C57.3384 10.1642 57.4545 10.1642 57.5125 10.1642C58.2958 10.1642 58.8614 10.3513 59.2096 10.7401C59.5577 11.1288 59.7318 11.5895 59.7318 12.1221V12.1077ZM58.8469 12.2517C58.8469 11.8342 58.7309 11.4887 58.4843 11.2151C58.2377 10.9272 57.8751 10.7976 57.3819 10.7976C57.2949 10.7976 57.1644 10.7976 57.0048 10.8264C57.0193 11.2583 57.0338 11.7046 57.0338 12.1653C57.0338 12.6836 57.0338 13.1875 57.0628 13.6914C57.2079 13.7202 57.3384 13.7346 57.4835 13.7346C57.9476 13.7346 58.2958 13.5906 58.5133 13.3027C58.7309 13.0147 58.8469 12.6692 58.8469 12.2517Z" fill="#F9F9FA"/>
<path d="M64.0542 14.3537H63.0969C62.8503 13.5906 62.6617 13.1299 62.5167 12.9572C62.3862 12.7844 62.1686 12.698 61.864 12.698C61.7334 12.698 61.6174 12.698 61.5013 12.698C61.5013 13.2451 61.5013 13.8066 61.5304 14.3681H60.631C60.6601 13.7202 60.6746 12.986 60.6746 12.1797C60.6746 11.3735 60.6746 10.7401 60.631 10.193H61.1967C61.1967 10.193 61.3998 10.193 61.6029 10.193C61.806 10.193 61.9945 10.193 62.1686 10.193C63.1549 10.193 63.6481 10.5241 63.6481 11.2008C63.6481 11.7334 63.3725 12.1078 62.8068 12.3093V12.3525C63.0244 12.4101 63.2129 12.5829 63.3725 12.8564C63.532 13.1299 63.7641 13.6482 64.0397 14.3825L64.0542 14.3537ZM62.8358 11.4023C62.8358 10.9704 62.5602 10.7689 62.009 10.7689C61.806 10.7689 61.6319 10.7833 61.4723 10.8121C61.5013 11.1432 61.5013 11.5751 61.5013 12.1078C61.6174 12.1078 61.7189 12.1078 61.806 12.1078C62.4877 12.1078 62.8358 11.8774 62.8358 11.4023Z" fill="#F9F9FA"/>
<path d="M68.6814 12.1797C68.6814 12.8419 68.4783 13.3746 68.0721 13.8209C67.666 14.2528 67.1583 14.4688 66.5636 14.4688C65.9689 14.4688 65.5193 14.2672 65.1276 13.8785C64.7505 13.4754 64.5474 12.9715 64.5474 12.3668C64.5474 11.7046 64.7505 11.1719 65.1566 10.7256C65.5628 10.2937 66.0705 10.0778 66.6652 10.0778C67.2599 10.0778 67.7095 10.2793 68.1012 10.668C68.4928 11.0567 68.6814 11.575 68.6814 12.1797ZM67.7966 12.2805C67.7966 11.8342 67.6805 11.4742 67.4484 11.1863C67.2164 10.8984 66.9263 10.7688 66.5926 10.7688C66.2735 10.7688 66.0124 10.9128 65.7949 11.1863C65.5773 11.4598 65.4612 11.8198 65.4612 12.2517C65.4612 12.6836 65.5773 13.0579 65.8094 13.3314C66.0414 13.605 66.3315 13.7489 66.6652 13.7489C66.9843 13.7489 67.2454 13.605 67.4629 13.3314C67.6805 13.0435 67.7966 12.698 67.7966 12.2661V12.2805Z" fill="#F9F9FA"/>
<path d="M70.5235 14.3537H69.6097C69.6387 13.6914 69.6532 12.9572 69.6532 12.1653C69.6532 11.3735 69.6532 10.7257 69.6097 10.1786H70.5235C70.4945 10.7113 70.48 11.3879 70.48 12.1653C70.48 12.9428 70.48 13.7058 70.5235 14.3537Z" fill="#F9F9FA"/>
<path d="M75.2086 12.1077C75.2086 12.7124 75.0055 13.2451 74.6139 13.7058C74.2223 14.1665 73.6711 14.3824 72.9603 14.3824C72.6412 14.3824 72.2061 14.3824 71.6404 14.3392C71.6694 13.6914 71.6839 12.9572 71.6839 12.1509C71.6839 11.3447 71.6839 10.7113 71.6404 10.1642H72.2061C72.2931 10.1642 72.4382 10.1642 72.6267 10.1642C72.8153 10.1642 72.9313 10.1642 72.9893 10.1642C73.7726 10.1642 74.3383 10.3513 74.6864 10.7401C75.0346 11.1288 75.2086 11.5895 75.2086 12.1221V12.1077ZM74.3238 12.2517C74.3238 11.8342 74.2078 11.4887 73.9612 11.2151C73.7146 10.9272 73.352 10.7976 72.8588 10.7976C72.7718 10.7976 72.6412 10.7976 72.4817 10.8264C72.4962 11.2583 72.5107 11.7046 72.5107 12.1653C72.5107 12.6836 72.5107 13.1875 72.5397 13.6914C72.6847 13.7202 72.8153 13.7346 72.9603 13.7346C73.4245 13.7346 73.7726 13.5906 73.9902 13.3027C74.2078 13.0147 74.3238 12.6692 74.3238 12.2517Z" fill="#F9F9FA"/>
<path d="M81.4313 14.3536H80.4014C80.4014 14.2097 80.2999 13.8066 80.1113 13.1587H78.6173C78.4143 13.8066 78.3127 14.2097 78.3127 14.3536H77.3409C77.3409 14.2673 77.5875 13.5906 78.0951 12.2949C78.6028 10.9992 78.8494 10.2938 78.8494 10.1642H80.0678C80.0678 10.2794 80.2999 10.9848 80.7496 12.2517C81.1992 13.5186 81.4313 14.2241 81.4313 14.3392V14.3536ZM79.9228 12.5397C79.5602 11.4311 79.3716 10.8408 79.3716 10.7545H79.3136C79.3136 10.8408 79.125 11.4311 78.7479 12.5397H79.9228Z" fill="#F9F9FA"/>
<path d="M85.2026 11.2583C85.2026 11.7766 85.014 12.1509 84.6224 12.3957C84.2308 12.6404 83.7666 12.7556 83.2154 12.7556C83.1139 12.7556 83.0414 12.7556 82.9978 12.7556C82.9978 13.1587 82.9978 13.6914 83.0269 14.3537H82.113C82.142 13.7346 82.1566 13.0004 82.1566 12.1653C82.1566 11.4023 82.1566 10.7257 82.113 10.1786H82.6787C82.7513 10.1786 82.9108 10.1786 83.1429 10.1786C83.375 10.1786 83.5635 10.1786 83.7376 10.1786C84.1437 10.1786 84.4919 10.265 84.782 10.4521C85.0576 10.6393 85.2026 10.9128 85.2026 11.2871V11.2583ZM84.3613 11.4455C84.3613 10.9848 84.0567 10.7545 83.4475 10.7545C83.2879 10.7545 83.1284 10.7689 82.9688 10.7976C82.9978 11.2008 82.9978 11.6615 82.9978 12.1653C83.0559 12.1653 83.1139 12.1653 83.1864 12.1653C83.9697 12.1653 84.3613 11.9206 84.3613 11.4167V11.4455Z" fill="#F9F9FA"/>
<path d="M89.0754 11.2583C89.0754 11.7766 88.8868 12.1509 88.4952 12.3957C88.1181 12.6404 87.6394 12.7556 87.0882 12.7556C86.9867 12.7556 86.9142 12.7556 86.8706 12.7556C86.8706 13.1587 86.8706 13.6914 86.8997 14.3537H85.9858C86.0148 13.7346 86.0294 13.0004 86.0294 12.1653C86.0294 11.4023 86.0294 10.7257 85.9858 10.1786H86.5515C86.6386 10.1786 86.7836 10.1786 87.0157 10.1786C87.2478 10.1786 87.4363 10.1786 87.6104 10.1786C88.0165 10.1786 88.3647 10.265 88.6548 10.4521C88.9304 10.6393 89.0754 10.9128 89.0754 11.2871V11.2583ZM88.2486 11.4455C88.2486 10.9848 87.944 10.7545 87.3348 10.7545C87.1753 10.7545 87.0157 10.7689 86.8561 10.7976C86.8852 11.2008 86.8852 11.6615 86.8852 12.1653C86.9432 12.1653 87.0012 12.1653 87.0737 12.1653C87.857 12.1653 88.2486 11.9206 88.2486 11.4167V11.4455Z" fill="#F9F9FA"/>
<path d="M95.4141 12.1797C95.4141 12.8419 95.2111 13.3746 94.8049 13.8209C94.3988 14.2528 93.8911 14.4688 93.2964 14.4688C92.7017 14.4688 92.2521 14.2672 91.8604 13.8785C91.4833 13.4754 91.2802 12.9715 91.2802 12.3668C91.2802 11.7046 91.4833 11.1719 91.8894 10.7256C92.2956 10.2937 92.8032 10.0778 93.3979 10.0778C93.9927 10.0778 94.4423 10.2793 94.8339 10.668C95.2111 11.0711 95.4141 11.575 95.4141 12.1797ZM94.5293 12.2805C94.5293 11.8342 94.4133 11.4742 94.1812 11.1863C93.9491 10.9128 93.659 10.7688 93.3254 10.7688C93.0063 10.7688 92.7452 10.9128 92.5276 11.1863C92.3101 11.4598 92.194 11.8198 92.194 12.2517C92.194 12.6836 92.3101 13.0579 92.5421 13.3314C92.7742 13.605 93.0643 13.7489 93.3979 13.7489C93.7171 13.7489 93.9782 13.605 94.1957 13.3314C94.4133 13.0435 94.5293 12.698 94.5293 12.2661V12.2805Z" fill="#F9F9FA"/>
<path d="M99.8092 14.3536H99.0114C99.0114 14.2673 98.7213 13.8066 98.1266 12.9572C97.5029 12.079 97.1548 11.4743 97.0677 11.1432H97.0097C97.0677 11.6183 97.0967 12.0358 97.0967 12.4101C97.0967 12.9428 97.1112 13.5762 97.1402 14.3392H96.3425C96.3715 13.677 96.386 12.9428 96.386 12.1509C96.386 11.3591 96.3715 10.7113 96.3425 10.1642H97.2998C97.2998 10.2794 97.5609 10.7257 98.0976 11.5175C98.6633 12.3525 98.9969 12.9284 99.0694 13.2307H99.1129C99.0549 12.7556 99.0404 12.3237 99.0404 11.9494C99.0404 11.3735 99.0259 10.7688 98.9969 10.1642H99.8092C99.7802 10.6969 99.7657 11.3591 99.7657 12.1509C99.7657 12.9428 99.7802 13.6914 99.8092 14.3392V14.3536Z" fill="#F9F9FA"/>
</g>
<defs>
<linearGradient id="paint0_linear_3394_120" x1="20.1477" y1="9.63147" x2="20.1477" y2="43.4927" gradientUnits="userSpaceOnUse">
<stop stop-color="#287DB0"/>
<stop offset="0.19" stop-color="#3D8EB2"/>
<stop offset="0.74" stop-color="#74BCB9"/>
<stop offset="1" stop-color="#8ACEBC"/>
</linearGradient>
<linearGradient id="paint1_linear_3394_120" x1="11.5462" y1="18.0248" x2="33.3763" y2="18.0248" gradientUnits="userSpaceOnUse">
<stop stop-color="#53C0AC"/>
<stop offset="1" stop-color="#DEE89A"/>
</linearGradient>
<linearGradient id="paint2_linear_3394_120" x1="22.4685" y1="26.5621" x2="22.4685" y2="43.6079" gradientUnits="userSpaceOnUse">
<stop stop-color="#EB413D"/>
<stop offset="0.19" stop-color="#D54352"/>
<stop offset="0.74" stop-color="#9E4988"/>
<stop offset="1" stop-color="#894C9E"/>
</linearGradient>
<linearGradient id="paint3_linear_3394_120" x1="35.0296" y1="22.0127" x2="35.0296" y2="31.0971" gradientUnits="userSpaceOnUse">
<stop stop-color="#F58879"/>
<stop offset="0.61" stop-color="#FAB175"/>
<stop offset="1" stop-color="#FEC774"/>
</linearGradient>
<clipPath id="clip0_3394_120">
<rect width="154" height="50" fill="white"/>
</clipPath>
</defs>
</svg>
