<svg width="80" height="80" viewBox="0 0 80 80" fill="none" xmlns="http://www.w3.org/2000/svg">
<path opacity="0.4" d="M40.2886 73.3334C39.8758 73.3334 39.463 73.2386 39.0905 73.0457L27.0869 66.832C23.6808 65.067 21.0163 63.0862 18.9357 60.7785C14.3819 55.7318 11.8483 49.2534 11.808 42.533L11.6669 20.4142C11.6503 17.8614 13.298 15.5701 15.7611 14.7072L37.8019 7.02265C39.1107 6.55523 40.5705 6.5487 41.9027 6.99977L64.0274 14.4228C66.504 15.2498 68.1785 17.5248 68.192 20.0743L68.3329 42.2095C68.3765 48.92 65.9301 55.4245 61.4468 60.5269C59.3897 62.8672 56.7487 64.8774 53.3761 66.6752L41.4799 73.0294C41.1107 73.2288 40.7013 73.3301 40.2886 73.3334Z" fill="#203B81"/>
<path d="M37.7306 47.7364C37.0863 47.7396 36.442 47.5076 35.9454 47.0304L29.5559 40.8853C28.5693 39.9309 28.5593 38.3816 29.5358 37.4206C30.5123 36.4563 32.1063 36.4465 33.0963 37.3977L37.6937 41.8169L48.9188 30.7493C49.8987 29.7851 51.4927 29.7753 52.4793 30.7264C53.4693 31.6809 53.4794 33.2335 52.5028 34.1912L39.5059 47.0075C39.0159 47.4912 38.375 47.7331 37.7306 47.7364Z" fill="#203B81"/>
</svg>
