<svg width="80" height="80" viewBox="0 0 80 80" fill="none" xmlns="http://www.w3.org/2000/svg">
<path opacity="0.4" fill-rule="evenodd" clip-rule="evenodd" d="M60.5136 53.271C62.0019 52.7949 63.6064 52.7648 65.1091 53.1814C65.3053 53.2358 65.5133 53.2349 65.7082 53.176C66.2736 53.0058 66.911 52.8672 67.5206 52.8576C67.9571 52.8506 68.3923 52.6461 68.5734 52.2486C70.2294 48.6141 71.1376 44.5939 71.1376 40.375C71.1376 36.6666 70.4291 33.1155 69.1315 29.8405C68.9168 29.2986 68.263 29.0973 67.7645 29.3993C67.5891 29.5057 67.4621 29.5819 67.3936 29.623C66.7536 29.943 66.0816 30.135 65.4096 30.135C64.7056 30.135 64.0336 29.943 63.3936 29.623C62.5936 29.175 55.5856 25.207 53.7616 19.319C53.2454 17.7436 53.1213 16.1452 53.3501 14.6411C53.4202 14.1788 53.192 13.7103 52.7574 13.5383C49.5344 12.2635 46.0186 11.575 42.3376 11.575C26.4655 11.575 13.5375 24.503 13.5375 40.375C13.5375 42.4304 13.7545 44.4621 14.1676 46.4064C14.2731 46.903 14.7583 47.216 15.2591 47.1334C16.0449 47.0038 17.1403 46.839 17.6335 46.839C18.5935 46.839 19.5535 46.999 20.4495 47.287C25.4095 48.887 27.9375 54.231 26.2415 59.511C25.9467 60.4445 25.5011 61.3402 24.977 62.1837C24.7099 62.6138 24.7884 63.1821 25.1939 63.4851C29.9733 67.0573 35.9088 69.175 42.3376 69.175C46.9331 69.175 51.2784 68.0896 55.1395 66.1786C55.6054 65.9478 55.7811 65.3821 55.5856 64.9005C55.4826 64.6467 55.3866 64.3862 55.2976 64.119C53.7936 59.479 56.0656 54.711 60.5136 53.271Z" fill="#203B81"/>
<path fill-rule="evenodd" clip-rule="evenodd" d="M55.8413 35.553C55.4253 35.873 54.9133 36.065 54.4013 36.065C53.6653 36.065 52.9613 35.713 52.4813 35.105C52.2573 34.785 51.7133 34.273 50.9133 34.273C50.1133 34.273 49.5693 34.785 49.3453 35.105C48.5133 36.161 47.0093 36.353 45.9533 35.553C44.9293 34.753 44.7053 33.249 45.5373 32.193C48.1933 28.705 53.6333 28.705 56.2893 32.193C57.0893 33.249 56.8973 34.753 55.8413 35.553Z" fill="#203B81"/>
<path fill-rule="evenodd" clip-rule="evenodd" d="M53.4733 49.441C50.6893 53.057 46.6573 55.137 42.3373 55.137C38.0493 55.137 34.0173 53.057 31.2332 49.441C30.4332 48.417 30.6252 46.881 31.6812 46.081C32.7373 45.281 34.2413 45.473 35.0413 46.529C36.8973 48.929 39.5533 50.337 42.3373 50.337C45.1533 50.337 47.8093 48.961 49.6653 46.529C50.4653 45.473 51.9693 45.281 53.0253 46.081C54.0813 46.881 54.2733 48.385 53.4733 49.441Z" fill="#203B81"/>
<path fill-rule="evenodd" clip-rule="evenodd" d="M28.4816 35.553C27.4256 34.753 27.2016 33.249 28.0336 32.193C30.6896 28.705 36.1296 28.705 38.7856 32.193C39.6176 33.249 39.3936 34.753 38.3376 35.553C37.9216 35.873 37.4096 36.065 36.8976 36.065C36.1616 36.065 35.4576 35.713 34.9776 35.105C34.7536 34.785 34.2096 34.273 33.4096 34.273C32.6096 34.273 32.0656 34.785 31.8416 35.105C31.0416 36.161 29.5376 36.353 28.4816 35.553Z" fill="#203B81"/>
<path fill-rule="evenodd" clip-rule="evenodd" d="M19.1695 51.2653C18.6895 51.1053 18.1455 51.0093 17.6335 51.0093C16.9935 51.0093 16.3535 51.1373 15.7455 51.3933C15.3295 51.5533 14.9775 51.7773 14.6255 52.0333C13.7295 51.3613 12.6415 51.0093 11.5855 51.0093C11.0735 51.0093 10.5295 51.1053 10.0495 51.2653C7.07354 52.1933 6.01754 55.4253 6.91354 58.2413C8.32154 62.7213 14.6255 66.1773 14.6255 66.1773C14.6255 66.1773 19.1695 63.7133 21.3775 60.1293C21.7935 59.5213 22.0815 58.9133 22.3055 58.2413C23.2015 55.4253 22.1455 52.1933 19.1695 51.2653Z" fill="#203B81"/>
<path fill-rule="evenodd" clip-rule="evenodd" d="M69.0099 57.2624C68.6259 57.1344 68.1939 57.0576 67.7843 57.0576C67.2755 57.0576 66.7635 57.16 66.2803 57.3648C65.9475 57.4928 65.6659 57.6688 65.3875 57.8736C64.6739 57.3392 63.8035 57.0576 62.9619 57.0576C62.5555 57.0576 62.1203 57.1344 61.7395 57.2624C59.3651 58.0016 58.5235 60.5776 59.2371 62.824C60.3603 66.3952 65.3875 69.1504 65.3875 69.1504C65.3875 69.1504 69.0099 67.1888 70.7699 64.328C71.1027 63.8448 71.3331 63.3616 71.5091 62.824C72.2259 60.5776 71.3811 58.0016 69.0099 57.2624Z" fill="#203B81"/>
<path fill-rule="evenodd" clip-rule="evenodd" d="M69.951 11.0685C69.471 10.9085 68.927 10.8125 68.415 10.8125C67.7718 10.8125 67.1318 10.9405 66.5238 11.1965C66.1078 11.3565 65.7558 11.5805 65.4038 11.8365C64.5078 11.1645 63.4166 10.8125 62.3606 10.8125C61.8486 10.8125 61.3046 10.9085 60.8246 11.0685C57.8454 11.9965 56.7894 15.2317 57.6854 18.0477C59.0934 22.5341 65.4038 25.9901 65.4038 25.9901C65.4038 25.9901 69.951 23.5261 72.159 19.9389C72.5782 19.3309 72.863 18.7229 73.087 18.0477C73.9862 15.2317 72.927 11.9965 69.951 11.0685Z" fill="#203B81"/>
</svg>
