<svg width="80" height="80" viewBox="0 0 80 80" fill="none" xmlns="http://www.w3.org/2000/svg">
<path opacity="0.4" fill-rule="evenodd" clip-rule="evenodd" d="M42.4291 17.6672C28.0292 17.6672 16.3172 29.3792 16.3172 43.7792C16.3172 44.1065 16.3256 44.4342 16.3381 44.7574C16.3577 45.2675 16.7814 45.6672 17.292 45.6672H28.0292C31.5812 45.6672 34.4291 48.5152 34.4291 52.0672C34.4291 52.2259 34.4227 52.3824 34.4103 52.5366C34.3584 53.1753 34.8154 53.7952 35.4563 53.7952H35.9971C39.5171 53.7952 42.3971 56.6432 42.3971 60.1952C42.3971 60.7344 42.3264 61.2636 42.1965 61.7712C42.0557 62.3213 42.4375 62.9152 43.0051 62.9152C45.9911 62.9152 48.5056 64.9731 49.1962 67.7577C49.3434 68.351 49.9299 68.7785 50.5114 68.5894C60.9674 65.1872 68.5411 55.3629 68.5411 43.7792C68.5411 29.3792 56.8291 17.6672 42.4291 17.6672Z" fill="#203B81"/>
<path fill-rule="evenodd" clip-rule="evenodd" d="M35.7174 13.0859H49.183C50.5078 13.0859 51.583 12.0107 51.583 10.6859C51.583 9.36115 50.5078 8.28595 49.183 8.28595H35.7174C34.3926 8.28595 33.3174 9.36115 33.3174 10.6859C33.3174 12.0107 34.3926 13.0859 35.7174 13.0859Z" fill="#203B81"/>
<path fill-rule="evenodd" clip-rule="evenodd" d="M38.3837 60.1907C38.3837 58.8659 37.3085 57.7907 35.9837 57.7907H22.2525C20.9277 57.7907 19.8525 58.8659 19.8525 60.1907C19.8525 61.5155 20.9277 62.5907 22.2525 62.5907H35.9837C37.3085 62.5907 38.3837 61.5155 38.3837 60.1907Z" fill="#203B81"/>
<path fill-rule="evenodd" clip-rule="evenodd" d="M42.9898 66.9139H29.2586C27.9338 66.9139 26.8586 67.9891 26.8586 69.3139C26.8586 70.6387 27.9338 71.7139 29.2586 71.7139H42.9898C44.3146 71.7139 45.3898 70.6387 45.3898 69.3139C45.3898 67.9891 44.3146 66.9139 42.9898 66.9139Z" fill="#203B81"/>
<path fill-rule="evenodd" clip-rule="evenodd" d="M30.4414 52.0624C30.4414 50.7376 29.3662 49.6624 28.0414 49.6624H14.307C12.9822 49.6624 11.907 50.7376 11.907 52.0624C11.907 53.3872 12.9822 54.4624 14.307 54.4624H28.0414C29.3662 54.4624 30.4414 53.3872 30.4414 52.0624Z" fill="#203B81"/>
<path d="M53.5014 35.9712L44.0934 45.3792C43.6454 45.8592 43.0054 46.0832 42.3974 46.0832C41.7894 46.0832 41.1814 45.8592 40.7014 45.3792C39.7734 44.4512 39.7734 42.9152 40.7014 41.9872L50.1094 32.5792C51.0694 31.6512 52.5734 31.6512 53.5014 32.5792C54.4614 33.5072 54.4614 35.0432 53.5014 35.9712Z" fill="#203B81"/>
</svg>
