<svg width="80" height="80" viewBox="0 0 80 80" fill="none" xmlns="http://www.w3.org/2000/svg">
<path opacity="0.4" fill-rule="evenodd" clip-rule="evenodd" d="M48.6237 38.808C48.6237 33.016 53.3597 28.28 59.1517 28.28H71.9453C72.4781 28.28 72.9117 27.8455 72.8787 27.3138C72.3168 18.2264 64.7475 11 55.5357 11H29.5197C19.9197 11 12.1117 18.808 12.1117 28.408V49.976C12.1117 50.4576 12.1281 50.9389 12.1728 51.4205C12.2055 51.7731 12.4496 52.0634 12.7731 52.2077C13.6297 52.5904 14.4348 53.1312 15.1517 53.848L15.9117 54.608C16.2871 54.9834 16.8958 54.9827 17.2705 54.6067L25.5517 46.296C28.6877 43.16 33.7437 43.16 36.8797 46.296C40.0157 49.4 40.0157 54.456 36.8797 57.592L28.6531 65.8461C28.0914 66.4096 28.4224 67.3638 29.2179 67.3808C29.318 67.383 29.4186 67.384 29.5197 67.384H55.5357C65.1981 67.384 72.4195 59.5482 72.8877 50.264C72.9142 49.7344 72.4819 49.304 71.9517 49.304H59.1517C53.3597 49.304 48.6237 44.6 48.6237 38.808Z" fill="#203B81"/>
<path fill-rule="evenodd" clip-rule="evenodd" d="M61.8393 38.6109C61.8393 39.9549 60.7513 41.0109 59.4393 41.0109C58.0953 41.0109 57.0393 39.9549 57.0393 38.6109C57.0393 37.2989 58.0953 36.2109 59.4393 36.2109C60.7513 36.2109 61.8393 37.2989 61.8393 38.6109ZM53.4233 38.8029C53.4233 41.9389 55.9833 44.4989 59.1513 44.4989H71.9513C72.4816 44.4989 72.9113 44.0691 72.9113 43.5389V34.0349C72.9113 33.5048 72.4816 33.075 71.9513 33.075H59.1513C55.9833 33.075 53.4233 35.6349 53.4233 38.8029Z" fill="#203B81"/>
<path fill-rule="evenodd" clip-rule="evenodd" d="M32.9203 50.2374C31.9827 49.2998 30.4627 49.2998 29.5251 50.2374L16.5875 63.1942L11.1859 57.7894C10.2483 56.8518 8.72826 56.8518 7.79066 57.7894C6.85306 58.727 6.85306 60.247 7.79066 61.1846L14.8915 68.2886C15.3427 68.7366 15.9539 68.9894 16.5875 68.9894C17.2275 68.9894 17.8387 68.7366 18.2867 68.2886L32.9235 53.6326C33.8579 52.695 33.8579 51.1718 32.9203 50.2374Z" fill="#203B81"/>
</svg>
